<svg xmlns="http://www.w3.org/2000/svg" xmlns:xlink="http://www.w3.org/1999/xlink" 
version="1.1" x="0px" y="0px" viewBox="0 0 100 100">

<path d="M653,838 l197,0 c0,105,-56,161,-125,161 c-12,0,-24,-2,-35,-5 c-24,45,-71,76,-126,76 c-78,0,-143,-64,-143,-144 c-40,-8,-71,-44,-71,-88 l212,0 l-112,-138 l122,0 l-50,-146 l228,218 l-137,0 Z M141,0 c0,0,24,29,96,173 l60,120 c124,248,-71,251,-71,555 c0,252,149,362,374,362 c244,0,370,-164,370,-340 l0,-107 c0,-54,82,-132,82,-176 c0,-37,-72,-22,-92,-53 c-14,-71,-19,-119,-31,-158 c-15,-50,-47,-69,-104,-69 c-57,0,-80,-6,-89,-33 c-44,-131,158,-195,158,-274 Z M141,0 "  transform="matrix(0.05,0.0,0.0,-0.05,20.0,80.0)"/></svg>