<svg xmlns="http://www.w3.org/2000/svg" xmlns:xlink="http://www.w3.org/1999/xlink" 
version="1.1" x="0px" y="0px" viewBox="0 -100 1133.9 1417.375" enable-background="new 0 0 100 100" xml:space="preserve">
<path d="M1049.5,567.6c0-44.8-31.8-82.3-74-91.2c-18.6-84.2-62.3-159.5-126.7-218c3.6-10,5.7-20.6,5.7-31.8  c0-51.4-41.8-93.2-93.2-93.2c-29.2,0-55.3,13.5-72.4,34.6c-38.7-11.6-78.9-17.6-119.6-17.6c-42.7,0-84.8,6.5-125.3,19.3  c-17.1-22.1-43.7-36.3-73.7-36.3c-51.4,0-93.2,41.8-93.2,93.2c0,13,2.7,25.4,7.5,36.6C223.3,320.8,181.4,394,163.3,475.6  c-44.6,6.9-78.9,45.5-78.9,92c0,46.7,34.6,85.4,79.5,92.1c18.5,80.8,60.1,153.1,120.9,210.2c-4.9,11.3-7.6,23.7-7.6,36.8  c0,51.4,41.8,93.2,93.2,93.2c30.1,0,56.8-14.4,73.9-36.5c40.4,12.7,82.5,19.2,125.1,19.2c40.7,0,80.8-5.9,119.5-17.5  c17.1,21.2,43.3,34.8,72.6,34.8c51.4,0,93.2-41.8,93.2-93.2c0-11.2-2.1-22-5.8-32C912.6,816.9,956.1,742.4,975,659  C1017.5,650.3,1049.5,612.6,1049.5,567.6z M956.3,571.1c-12.3,0-22.3-10-22.3-22.3c0-6,2.3-11.6,6.5-15.8s9.8-6.5,15.8-6.5  c12.3,0,22.3,10,22.3,22.3C978.6,561.1,968.6,571.1,956.3,571.1z M1007.2,628.1c-13.8,11.6-31.5,18.6-50.9,18.6  c-19.4,0-37.1-7-50.9-18.6c9.8-26.2,29.4-42.9,50.9-42.9C977.7,585.2,997.3,601.9,1007.2,628.1z M960.6,474.6  c-1.5-0.1-2.9-0.2-4.3-0.2c-48.6,0-88.6,37.4-92.8,84.9H700.4c-2.7-42.8-26-80.1-60-102.1l83.8-145.1c11.4,5,24,7.8,37.2,7.8  c34.9,0,65.4-19.3,81.4-47.8C901.8,326.9,942.4,396.7,960.6,474.6z M569.3,684.9c-29.5,0-56.4-11-77.1-29c14.4-40.2,44.2-66,77.1-66  c32.8,0,62.7,25.8,77.1,66C625.8,673.9,598.8,684.9,569.3,684.9z M569.3,575.8c-19.5,0-35.3-15.8-35.3-35.3  c0-19.5,15.8-35.3,35.3-35.3c19.5,0,35.3,15.8,35.3,35.3C604.6,559.9,588.8,575.8,569.3,575.8z M777.2,223.6  c-4.2,4.2-9.8,6.5-15.8,6.5c-12.3,0-22.3-10-22.3-22.3c0-12.3,10-22.3,22.3-22.3c12.3,0,22.3,10,22.3,22.3  C783.7,213.8,781.4,219.4,777.2,223.6z M812.3,287.1c-13.8,11.6-31.5,18.6-50.9,18.6c-19.4,0-37.1-7-50.9-18.6  c9.8-26.2,29.4-42.9,50.9-42.9C782.8,244.2,802.4,260.9,812.3,287.1z M569.3,164.6c37.8,0,75.2,5.3,111.3,15.7  c-7.9,13.7-12.5,29.5-12.5,46.4c0,33.2,17.5,62.3,43.6,78.8l-83.6,144.8c-17.7-8.9-37.7-14-58.8-14c-21.3,0-41.3,5.1-59.1,14.1  l-85.5-148.1c23.5-16.9,38.9-44.5,38.9-75.6c0-16.2-4.1-31.4-11.4-44.6C490.1,170.5,529.5,164.6,569.3,164.6z M370.4,230.1  c-12.3,0-22.3-10-22.3-22.3c0-12.3,10-22.3,22.3-22.3c12.3,0,22.3,10,22.3,22.3C392.7,220.1,382.7,230.1,370.4,230.1z M421.2,287.1  c-13.8,11.6-31.5,18.6-50.9,18.6c-19.4,0-37.1-7-50.9-18.6c9.8-26.2,29.4-42.9,50.9-42.9C391.8,244.2,411.4,260.9,421.2,287.1z   M291.5,276.2c16.5,26.2,45.6,43.7,78.8,43.7c15.2,0,29.6-3.7,42.3-10.2L498,457.4c-33.9,22-57.1,59.2-59.7,101.9H270.4  c-4.2-47.4-44-84.7-92.4-84.9C195.8,398.5,234.8,330.3,291.5,276.2z M126.7,628.1c9.8-26.2,29.4-42.9,50.9-42.9  c21.4,0,41,16.7,50.9,42.9c-13.8,11.6-31.5,18.6-50.9,18.6C158.2,646.8,140.5,639.7,126.7,628.1z M177.6,571.1  c-12.3,0-22.3-10-22.3-22.3c0-12.3,10-22.3,22.3-22.3c12.3,0,22.3,10,22.3,22.3C199.9,561.1,189.9,571.1,177.6,571.1z M178.5,660.8  c49-0.5,89-39,92-87.4h167.6c1.9,43.4,24.9,81.3,59,103.8l-84.5,146.4c-12.7-6.5-27-10.2-42.2-10.2c-33.1,0-62.2,17.4-78.7,43.5  C235.4,803.3,196.6,735.9,178.5,660.8z M319.5,967.2c9.8-26.2,29.4-42.9,50.9-42.9c21.4,0,41,16.7,50.9,42.9  c-13.8,11.6-31.5,18.6-50.9,18.6C351,985.8,333.2,978.8,319.5,967.2z M370.4,910.2c-12.3,0-22.3-10-22.3-22.3  c0-12.3,10-22.3,22.3-22.3s22.3,10,22.3,22.3C392.7,900.2,382.7,910.2,370.4,910.2z M569.3,968.5c-39.8,0-79.1-5.9-117-17.4  c7.2-13.2,11.3-28.3,11.3-44.4c0-31.2-15.4-58.8-39-75.7l84.6-146.6c18,9.3,38.4,14.6,60.1,14.6c21.5,0,41.8-5.2,59.8-14.5  l82.7,143.3c-26.2,16.5-43.7,45.7-43.7,78.9c0,16.8,4.5,32.5,12.3,46.2C644.4,963.2,607.1,968.5,569.3,968.5z M710.5,967.2  c9.8-26.2,29.4-42.9,50.9-42.9c21.4,0,41,16.7,50.9,42.9c-13.8,11.6-31.5,18.6-50.9,18.6C742,985.8,724.3,978.8,710.5,967.2z   M777.2,903.7c-4.2,4.2-9.8,6.5-15.8,6.5c-12.3,0-22.3-10-22.3-22.3c0-12.3,10-22.3,22.3-22.3c12.3,0,22.3,10,22.3,22.3  C783.7,893.8,781.4,899.4,777.2,903.7z M842.7,861.2c-16-28.4-46.4-47.7-81.3-47.7c-13.2,0-25.7,2.8-37.1,7.7l-83-143.7  c34.2-22.5,57.3-60.5,59.2-104h162.8c3,48.7,43.5,87.4,92.9,87.4c1.3,0,2.6-0.1,3.8-0.2C941.6,737.8,901.2,806.9,842.7,861.2z"/>


</svg>