<svg xmlns="http://www.w3.org/2000/svg" xmlns:xlink="http://www.w3.org/1999/xlink" version="1.1" x="0px" y="0px" viewBox="0 0 64 80" enable-background="new 0 0 64 64" xml:space="preserve"><g><g><path d="M39,24c0-3.86-3.141-7-7-7c-3.86,0-7,3.14-7,7s3.14,7,7,7C35.859,31,39,27.86,39,24z"/><path d="M32,7C18.215,7,7,18.215,7,32s11.215,25,25,25s25-11.215,25-25S45.785,7,32,7z M38,41c0.553,0,1,0.447,1,1s-0.447,1-1,1    h-5v5c0,0.553-0.448,1-1,1s-1-0.447-1-1v-5h-5c-0.552,0-1-0.447-1-1s0.448-1,1-1h5v-8.059c-4.493-0.5-8-4.317-8-8.941    c0-4.962,4.038-9,9-9c4.963,0,9,4.038,9,9c0,4.624-3.507,8.441-8,8.941V41H38z"/></g></g>



</svg>